<svg xmlns="http://www.w3.org/2000/svg" opacity=".3" viewBox="0 0 1422 800"><defs><linearGradient id="a" x1="50%" x2="50%" y1="0%" y2="100%"><stop offset="0%" stop-color="hsl(206, 75%, 49%)"/><stop offset="100%" stop-color="hsl(331, 90%, 56%)"/></linearGradient></defs><g fill="none" stroke="url(#a)" stroke-linecap="round"><path d="M0 448q355.5-548 711-48t711 48" opacity=".05"/><path d="M0 420q355.5-520 711-20t711 20" opacity=".11"/><path d="M0 392q355.5-492 711 8t711-8" opacity=".18"/><path d="M0 364q355.5-464 711 36t711-36" opacity=".24"/><path d="M0 336q355.5-436 711 64t711-64" opacity=".3"/><path d="M0 308q355.5-408 711 92t711-92" opacity=".37"/><path d="M0 280q355.5-380 711 120t711-120" opacity=".43"/><path d="M0 252q355.5-352 711 148t711-148" opacity=".49"/><path d="M0 224q355.5-324 711 176t711-176" opacity=".56"/><path d="M0 196q355.5-296 711 204t711-204" opacity=".62"/><path d="M0 168q355.5-268 711 232t711-232" opacity=".68"/><path d="M0 140q355.5-240 711 260t711-260" opacity=".75"/><path d="M0 112q355.5-212 711 288t711-288" opacity=".81"/><path d="M0 84q355.5-184 711 316t711-316" opacity=".87"/><path d="M0 56q355.5-156 711 344t711-344" opacity=".94"/></g></svg>